<?xml version="1.0" standalone="no"?>
<!DOCTYPE svg PUBLIC "-//W3C//DTD SVG 1.1//EN" "http://www.w3.org/Graphics/SVG/1.1/DTD/svg11.dtd" >
<svg xmlns="http://www.w3.org/2000/svg">
<defs>
  <font id="xPider" horiz-adv-x="256">
    <font-face font-family="xPider"
      units-per-em="256" ascent="256"
      descent="0" />
    <missing-glyph horiz-adv-x="0" />
    <glyph glyph-name="archery-target"
      unicode="&#xEA01;"
      horiz-adv-x="256" d="M173.846 233.212L151.283 210.5L155.298 190.664L159.313 170.828L151.346 162.861L143.379 154.894L136.82 158.878C126.205 165.327 117.682 167.514 103.5 167.425C93.455 167.363 90.251 166.937 83.835 164.809C58.286 156.335 40.035 130.996 40.035 104C40.035 74.37 61.713 47.523 90.5 41.499C135.893 32.002 176.089 72.151 166.501 117.412C164.978 124.6 160.613 134.926 156.882 140.166L154.719 143.204L162.806 151.291L170.894 159.379L190.697 155.256L210.5 151.132L233.212 173.77C245.704 186.221 255.79 196.544 255.625 196.709C255.46 196.874 247.264 198.606 237.412 200.557C227.561 202.509 218.852 204.326 218.059 204.595C217.088 204.924 219.992 208.468 226.982 215.482L237.345 225.88L232.595 231.44C229.983 234.498 227.325 237 226.69 237C226.054 237 220.933 232.414 215.309 226.809C208.407 219.931 204.925 217.087 204.595 218.059C204.326 218.852 202.509 227.561 200.557 237.412C198.606 247.264 196.874 255.46 196.709 255.625C196.544 255.79 186.255 245.704 173.846 233.212M189.51 212.162L191.282 202.823L182.427 193.926C177.556 189.033 173.276 185.36 172.916 185.765C172.556 186.169 171.464 190.702 170.49 195.838L168.718 205.177L177.573 214.074C182.444 218.967 186.724 222.64 187.084 222.235C187.444 221.831 188.536 217.298 189.51 212.162M89 206.89C78.065 205.148 70.299 202.67 59.5 197.477C32.465 184.478 13.039 161.979 4.666 133.969C-1.522 113.267 -1.524 94.74 4.66 74.053C11.067 52.616 24.349 33.872 43 19.945C51.131 13.873 67.188 6.363 78.523 3.33C87.301 0.981 90.362 0.661 104 0.661C117.539 0.661 120.728 0.99 129.206 3.262C147.645 8.203 162.097 16.317 175.784 29.414C193.641 46.501 204.072 67.363 207.17 92.185C208.524 103.033 207.445 118.57 204.466 131.122L202.895 137.744L195.063 135.778L187.231 133.811L188.53 128.885C201.58 79.415 174.536 32.314 125.329 18.81C119.115 17.105 114.715 16.662 104 16.662C89.291 16.662 80.8 18.345 68.671 23.666C35.303 38.305 14.274 72.395 16.338 108.5C18.869 152.755 52.984 187.842 97.153 191.617C105.155 192.301 120.049 190.861 128.773 188.56L133.811 187.231L135.778 195.064L137.745 202.898L130.965 204.44C115.502 207.957 101.008 208.803 89 206.89M213 189.361C217.675 188.459 221.831 187.43 222.235 187.075C222.64 186.72 218.967 182.444 214.074 177.573L205.177 168.718L195.838 170.498C190.702 171.478 186.115 172.497 185.644 172.764C184.657 173.323 201.943 191 203.479 191.001C204.041 191.001 208.325 190.263 213 189.361M113.447 150.925C119.305 149.842 129.518 145.59 130.647 143.763C130.981 143.221 123.91 135.423 114.933 126.433L98.61 110.088L100.523 107.794C101.574 106.532 104.011 103.804 105.938 101.732L109.442 97.963L126.11 114.609C135.277 123.765 143.221 130.982 143.763 130.647C145.426 129.619 149.668 119.797 150.866 114.201C154.402 97.68 149.873 82.79 137.552 70.42C127.727 60.557 117.124 56 104 56C90.876 56 80.273 60.557 70.448 70.42C58.136 82.781 53.623 97.6 57.115 114.201C59.03 123.307 62.842 130.002 70.42 137.568C82.643 149.769 96.473 154.063 113.447 150.925" />
    <glyph glyph-name="bill"
      unicode="&#xEA02;"
      horiz-adv-x="256" d="M24 130.092L24 4.184L47.516 13.601L71.033 23.018L83.201 14.865L95.37 6.713L111.685 14.852L128 22.992L144.315 14.852L160.63 6.713L172.799 14.865L184.967 23.018L208.484 13.601L232 4.184L232 130.092L232 256L128 256L24 256L24 130.092M216 133.893C216 49.41 215.745 27.887 214.75 28.282C214.063 28.555 206.627 31.53 198.226 34.893L182.953 41.008L171.202 33.135L159.451 25.262L143.725 33.137L128 41.012L112.275 33.137L96.549 25.262L84.798 33.135L73.047 41.008L57.774 34.893C49.373 31.53 41.938 28.555 41.25 28.282C40.255 27.887 40 49.41 40 133.893L40 240L128 240L216 240L216 133.893M119.932 223.043C109.359 221.133 97.135 211.712 92.15 201.633C86.935 191.088 86.935 176.946 92.15 166.339C95.165 160.206 104.206 151.165 110.339 148.15C120.946 142.935 135.054 142.935 145.661 148.15C151.794 151.165 160.835 160.206 163.85 166.339C169.065 176.946 169.065 191.088 163.85 201.633C160.362 208.686 152.195 216.552 144.815 219.965C137.804 223.208 127.737 224.454 119.932 223.043M138.622 205.177C146.993 200.873 151.434 193.53 151.429 184C151.419 162.942 126.711 152.144 111.812 166.685C98.256 179.917 103.589 201.098 121.994 207.124C125.845 208.385 134.311 207.394 138.622 205.177M64 112L64 104L100 104L136 104L136 112L136 120L100 120L64 120L64 112M160 112L160 104L176 104L192 104L192 112L192 120L176 120L160 120L160 112M64 72L64 64L100 64L136 64L136 72L136 80L100 80L64 80L64 72M160 72L160 64L176 64L192 64L192 72L192 80L176 80L160 80L160 72" />
    <glyph glyph-name="book-open-2"
      unicode="&#xEA03;"
      horiz-adv-x="256" d="M5 145.16V49.32L66.504 32.544L128 15.776L189.504 32.544L251 49.32V145.16C251 230.752 250.84 241.0000000000001 249.464 241.0000000000001C248.616 241.0000000000001 220.936 233.6 187.96 224.56L127.992 208.1280000000001L67.8 224.56C34.688 233.6 7.016 241 6.304 241C5.24 241 5 223.16 5 145.16M73.248 212.12L128 197.24L182.752 212.12C212.864 220.296 238.064 227 238.752 227C239.736 227 240 209.376 240 142.2V57.384L184 42.136L128 26.88L72 42.136L16 57.384V142.192C16 209.376 16.264 226.992 17.248 226.992C17.936 226.992 43.136 220.296 73.248 212.112M48.176 180.376C47.496 177.824 47.16 175.512 47.44 175.232C48.168 174.504 96.16 161.088 98.2 161.048C99.336 161.024 100.256 162.272 100.944 164.76C102.368 169.88 102.272 170.792 100.248 171.408C96.328 172.608 50.472 185.008 49.96 185.008C49.664 185.008 48.856 182.928 48.176 180.368M179.52 177.888C165.776 174.032 154.384 170.728 154.2 170.544C153.688 170.032 155.056 163.544 156 162.008C156.688 160.896 161.5680000000001 161.928 181.896 167.496C195.672 171.272 207.432 174.656 208.016 175.016C209.36 175.848 207.08 185.04 205.536 184.944C204.976 184.912 193.256 181.728 179.5200000000001 177.88M48.08 135.376C47.44 132.84 47.056 130.608 47.24 130.424C47.424 130.24 59.184 126.856 73.384 122.904C93.96 117.16 99.36 115.968 100.024 117.032C101.056 118.712 102.28 125.048 101.688 125.648C101.112 126.216 51.864 139.992 50.368 139.992C49.744 139.992 48.712 137.92 48.072 135.376M179.16 133C165.776 129.24 154.608 125.944 154.344 125.68C153.72 125.056 154.92 118.752 155.984 117.024C156.648 115.952 161.944 117.104 182.552 122.824C196.712 126.744 208.472 130.136 208.688 130.36C208.912 130.576 208.568 132.84 207.928 135.376C207.128 138.576 206.256 139.976 205.128 139.928C204.232 139.888 192.544 136.768 179.16 133M48.08 87.376C47.44 84.832 47.096 82.576 47.32 82.36C47.536 82.136 59.296 78.744 73.456 74.824C94.064 69.104 99.36 67.944 100.024 69.024C101.064 70.704 102.288 77.048 101.696 77.648C101.136 78.208 51.904 91.968 50.376 91.984C49.752 91.992 48.72 89.92 48.08 87.376M179.168 85C165.784 81.24 154.616 77.944 154.352 77.68C153.728 77.056 154.928 70.752 155.992 69.024C156.656 67.944 161.92 69.088 182.512 74.768C196.64 78.664 208.4 82.056 208.648 82.304C208.896 82.552 208.568 84.832 207.928 87.376C207.128 90.576 206.264 91.976 205.136 91.928C204.24 91.888 192.552 88.768 179.168 85" />
    <glyph glyph-name="button-circle-play"
      unicode="&#xEA04;"
      horiz-adv-x="256" d="M108.5 254.445C52.322 244.952 9.966 202.042 1.455 146C-4.588 106.211 9.673 64.918 39.355 36.262C89.301 -11.958 166.699 -11.958 216.645 36.262C269.023 86.829 268.891 168.914 216.351 220.158C188.519 247.304 146.082 260.795 108.5 254.445M142.566 238.928C180.027 233.717 211.616 211.023 228.07 177.5C238.201 156.86 241.918 134.932 238.928 113.434C233.756 76.256 210.947 44.506 177.283 27.627C146.956 12.421 109.451 12.268 79.5 27.228C45.679 44.121 24.018 73.283 17.491 110.71C12.858 137.28 19.597 167.042 35.747 191.328C42.214 201.052 55.72 214.37 66 221.16C88.458 235.991 116.646 242.533 142.566 238.928M88 128C88 89.5 88.17 58 88.379 58C89.545 58 197.5 127.242 197.5 127.99C197.5 128.739 89.546 198 88.38 198C88.171 198 88 166.5 88 128M137.25 148.198C154.162 137.473 168 128.384 168 128C168 127.474 112.219 91.553 105.25 87.592C104.259 87.029 104 95.393 104 128C104 160.607 104.259 168.971 105.25 168.408C105.938 168.017 120.338 158.922 137.25 148.198" />
    <glyph glyph-name="cursor-pointer"
      unicode="&#xEA05;"
      horiz-adv-x="256" d="M76.139 254.912C71.169 253.394 65.672 249.637 62.102 245.32C56.282 238.283 56 235.811 56 191.818L56 152L46.366 152C41.067 152 34.88 151.447 32.616 150.771C27.002 149.095 18.537 140.762 17.102 135.5C15.472 129.524 15.707 76.016 17.393 69C20.456 56.259 26.736 46.349 43.374 28C53.238 17.121 57 10.578 57 4.298L57 -0.012L135.194 0.244L213.389 0.5L222.7 60.5C232.53 123.842 232.827 127.279 229.263 136.395C225.994 144.752 217.65 154.581 210.872 158.056C204.901 161.117 196.338 162.761 156.5 168.493C135.6 171.501 117.037 174.215 115.25 174.526L112 175.091L112 203.364C112 235.604 111.468 238.915 105.131 246.113C102.999 248.536 99.123 251.583 96.519 252.883C91.151 255.564 81.438 256.531 76.139 254.912M92.407 236.056L95.5 232.964L95.786 197.02L96.072 161.077L99.286 160.523C101.054 160.218 124.074 156.825 150.441 152.981C186.326 147.751 199.466 145.469 202.692 143.907C208.192 141.244 212.64 135.859 214.592 129.5C216.096 124.598 215.964 123.434 207.848 70.25L199.569 16L135.535 16.002L71.5 16.005L68.677 21.408C67.124 24.38 61.317 31.916 55.772 38.156C42.802 52.75 38.731 58.193 35.295 65.532L32.5 71.5L32.183 101.229L31.867 130.958L34.388 133.479C36.731 135.822 37.585 136 46.455 136L56 136L56 116L56 96L63.98 96L71.959 96L72.23 164.42L72.5 232.84L75 235.529C78.345 239.128 80.74 240.056 85.407 239.562C88.082 239.279 90.288 238.174 92.407 236.056M96 84L96 48L104 48L112 48L112 84L112 120L104 120L96 120L96 84M128 84L128 48L136 48L144 48L144 84L144 120L136 120L128 120L128 84M160 84L160 48L168 48L176 48L176 84L176 120L168 120L160 120L160 84" />
    <glyph glyph-name="favourite-31"
      unicode="&#xEA06;"
      horiz-adv-x="256" d="M132.784 240.056L167.56 169.592L245.304 158.296C249.68 157.656 251.432 152.28 248.264 149.192L192 94.36L205.28 16.92A5.336 5.336 0 0 0 197.544 11.304L128 47.856L58.448 11.296A5.328 5.328 0 0 0 50.712 16.904L64 94.36L7.736 149.2A5.336 5.336 0 0 0 10.696 158.304L88.44 169.6L123.216 240.064A5.336 5.336 0 0 0 132.784 240.064z" />
    <glyph glyph-name="grid-45"
      unicode="&#xEA07;"
      horiz-adv-x="256" d="M5.664 250.336C5.304 249.968 5 225.888 5 196.832V144H112V251H59.168C30.112 251 6.032 250.696 5.664 250.336M144 197.512V144H251.016L250.76 197.248L250.504 250.504L197.248 250.76L144 251.016V197.52M101 197.504V155.008H16V240H101V197.496M240 197.496V155H155V240H240V197.496M5.24 58.76L5.496 5.504L58.752 5.248L112 4.992V112H4.984L5.24 58.752M144 58.48V4.976L197.248 5.232L250.504 5.488L250.76 58.744L251.016 111.992H144V58.48M101 58.488V16H16V101H101V58.496M240 58.496V16H155V101H240V58.496" />
    <glyph glyph-name="headset"
      unicode="&#xEA08;"
      horiz-adv-x="256" d="M115 255.4C87.837 250.406 71.711 243.154 54.248 228.079C36.573 212.821 24.166 191.534 18.356 166.5C16.688 159.308 16.5 153.748 16.5 111.48L16.5 64.461L19.834 57.687C22.228 52.824 24.572 49.804 28.149 46.976C35.748 40.97 40.409 40 61.682 40L80 40L80 88L80 136L55.851 136L31.703 136L32.31 147.25C32.644 153.437 33.805 162.1 34.89 166.5C45.865 211.005 86.62 241.871 131.5 239.667C156.661 238.432 177.041 229.715 194.845 212.572C212.407 195.662 222.285 173.294 223.69 147.25L224.297 136L200.149 136L176 136L176 88L176 40L194.75 40.033C210.201 40.06 214.424 40.384 218.75 41.879L224 43.693L223.99 39.596C223.969 30.65 215.783 19.75 207.142 17.161C204.58 16.393 193.231 16 173.634 16L144 16L144 8L144 0L172.816 0C189.332 0 204.148 0.465 207.526 1.089C220.031 3.401 230.611 11.735 236.307 23.759L239.5 30.5L239.803 90C240.002 129.099 239.73 152.339 239.011 157.781C235.463 184.639 221.453 211.072 201.752 228.079C181.031 245.967 158.329 254.764 131 255.497C123.575 255.696 116.375 255.653 115 255.4M64 87.912L64 55.823L53.168 56.162C43.026 56.478 42.097 56.683 38.562 59.382C32.311 64.154 32 65.819 32 94.468L32 120L48 120L64 120L64 87.912M224 94.468C224 65.819 223.689 64.154 217.438 59.382C213.903 56.683 212.974 56.478 202.832 56.162L192 55.823L192 87.912L192 120L208 120L224 120L224 94.468" />
    <glyph glyph-name="hybrid"
      unicode="&#xEA09;"
      horiz-adv-x="256" d="M114.5 255.385C95.587 253.408 73.01 245.093 56.432 233.998C40.064 223.044 22.384 202.738 13.093 184.223C-3.699 150.756 -4.059 109.137 12.142 74.07C15.693 66.385 27.875 46.813 29.879 45.575C31.285 44.706 43.077 54.056 42.246 55.38C41.836 56.034 39.2 59.929 36.389 64.035C16.331 93.335 11.006 127.144 21.117 161C24.146 171.142 32.24 186.651 39.531 196.28C63.551 228.005 106.15 245.106 144.619 238.467C191.554 230.367 225.906 198.76 237.205 153.277C240.371 140.534 240.348 115.378 237.159 102.529C233.539 87.942 227.018 73.988 217.986 61.5C215.997 58.75 214.062 55.981 213.686 55.347C212.925 54.064 224.765 44.737 226.104 45.564C226.551 45.841 229.675 50.19 233.046 55.23C243.834 71.358 249.683 84.945 253.627 103.04C256.182 114.766 256.169 141.018 253.602 152.96C248.025 178.9 236.901 199.32 218.11 218.11C199.404 236.816 177.403 248.744 152.814 253.51C144.6 255.102 122.257 256.1960000000001 114.5 255.385M113.342 214.591C90.691 210.258 72.569 199.495 58.846 182.226C55.631 178.18 53 174.718 53 174.533C53 174.348 55.812 172.1 59.25 169.538L65.5 164.88L67.942 168.19C69.285 170.01 74.022 175.153 78.468 179.618C85.202 186.382 88.132 188.494 96.025 192.272C101.236 194.766 107.975 197.397 111 198.118C118.303 199.858 138.048 199.855 145 198.112C161.09 194.078 175.135 184.36 187.501 168.703L190.5 164.906L196.749 169.55C200.477 172.321 202.729 174.66 202.331 175.347C201.965 175.981 199.516 179.231 196.89 182.57C185.058 197.609 168.741 208.317 150.5 213.014C140.121 215.686 122.89 216.418 113.342 214.591M88 136L88 120L76 120L64 120L64.017 88.75C64.037 52.834 64.653 48.187 71.138 35.034C81.465 14.084 104.291 0.035 128 0.035C151.709 0.035 174.535 14.084 184.862 35.034C191.347 48.187 191.963 52.834 191.983 88.75L192 120L180 120L168 120L168 136L168 152L160 152L152 152L152 136L152 120L128 120L104 120L104 136L104 152L96 152L88 152L88 136M176 81.549C176 68.594 175.52 56.857 174.866 53.799C172.923 44.722 169.086 37.984 161.552 30.42C154.001 22.84 147.319 19.032 138.201 17.115C127.673 14.9 116.948 16.162 107 20.785C99.73 24.163 88.251 35.667 84.832 43C80.712 51.838 80 57.517 80 81.549L80 104L128 104L176 104L176 81.549" />
    <glyph glyph-name="layout-11"
      unicode="&#xEA0A;"
      horiz-adv-x="256" d="M21.664 250.336C21.296 249.968 21 217.568 21 178.336V107H112V251H67.168C42.504 251 22.032 250.696 21.664 250.336M133.672 250.336C133.304 249.968 133 231.968 133 210.336V171H235.024L234.76 210.752L234.504 250.496L184.424 250.76C156.888 250.904 134.048 250.712 133.672 250.344M101 178.504V117H32V240H101V178.496M224 210.496V181H144V240H224V210.496M133.24 77.256L133.496 5.512H234.504L234.76 77.256L235.016 149.008H132.984L133.24 77.256M224 77.504V16H144V139H224V77.496M21.24 45.256L21.504 5.496L66.752 5.24L112 4.984V85H20.976L21.24 45.248M101 45.504V16H32V75H101V45.496" />
    <glyph glyph-name="mail"
      unicode="&#xEA0B;"
      horiz-adv-x="256" d="M20.678 230.496C10.818 227.786 4.14 220.965 1.449 210.856C-0.662 202.923 -0.662 53.077 1.449 45.144C4.158 34.967 10.967 28.158 21.144 25.449C29.116 23.328 226.884 23.328 234.856 25.449C245.033 28.158 251.842 34.967 254.551 45.144C256.662 53.077 256.662 202.923 254.551 210.856C251.802 221.184 245.184 227.802 234.856 230.551C227.22 232.583 28.088 232.532 20.678 230.496M226 215.573C226 214.728 129.082 139 128 139C126.918 139 30 214.728 30 215.573C30 215.808 74.1 216 128 216C181.9 216 226 215.808 226 215.573M72.416 161.5C102.456 137.85 127.459 118.5 127.978 118.5C128.496 118.5 153.513 137.85 183.57 161.5C213.628 185.15 238.631 204.654 239.134 204.841C239.682 205.046 239.938 173.77 239.774 126.664C239.502 48.753 239.484 48.124 237.406 45.323C236.255 43.77 233.78 41.963 231.906 41.306C227.004 39.589 28.996 39.589 24.094 41.306C22.22 41.963 19.745 43.77 18.594 45.323C16.516 48.124 16.498 48.753 16.226 126.664C16.06 174.302 16.315 205.048 16.875 204.841C17.382 204.654 42.376 185.15 72.416 161.5" />
    <glyph glyph-name="p-heart"
      unicode="&#xEA0C;"
      horiz-adv-x="256" d="M41.72 249.92C33.872 248.04 28.12 243.24 23.84 235L21.504 230.496V25.496L23.84 21C27.104 14.704 31.408 10.52 37.384 7.816L42.504 5.496H154.504L154.8 10.728L155.104 15.952L98.72 16.224L42.344 16.504L38.568 19.384C32.792 23.784 32 26.752 32 43.968V59H123V69H32V197H192V128H203.104L202.8 179.248L202.496 230.496L200.032 235.328A34.784 34.784 0 0 1 193.672 243.68C185.72 250.864 190.072 250.48 114 250.664C75.792 250.76 43.824 250.424 41.72 249.928M182.656 238.36C184.56 237.456 187.328 235.128 188.808 233.192C191.288 229.952 191.528 228.792 191.84 218.832L192.176 208H31.824L32.16 218.832C32.472 228.768 32.72 229.952 35.184 233.176C40.6 240.28 36.96 239.952 111.848 239.976C172.248 240 179.552 239.832 182.648 238.36M169.92 106.024C163.68 104.92 158.2 101.96 153.264 97.024A31.055999999999997 31.055999999999997 0 0 1 148.808 58.504C150.168 56.304 161.552 44.152 174.112 31.504L196.952 8.504L220.544 32C233.52 44.928 245.1840000000001 57.296 246.472 59.504C251.584 68.224 251.784 80.568 246.968 90.048C244.552 94.808 236.888 101.72 231.272 104.208C222.28 108.184 208.632 106.488 200.48 100.376L197.464 98.112L193.072 101.064A32.48 32.48 0 0 1 169.92 106.024M185.992 92.888C188.216 91.632 191.632 88.28 193.632 85.368L197.248 80.12L201.488 85.88C206.128 92.176 210.744 94.992 217.728 95.776C233.112 97.512 245.0080000000001 79.224 237.5840000000001 65.232C236.784 63.728 227.296 53.728 216.4960000000001 43L196.864 23.504L177.904 42.84C167.48 53.472 158.064 63.912 156.976 66.04C155.768 68.416 155 71.912 155 75.056C155 91.128 171.864 100.824 185.992 92.888" />
    <glyph glyph-name="phone-2"
      unicode="&#xEA0D;"
      horiz-adv-x="256" d="M23.632 223.128L4.76 204.248L5.904 189.328C11.344 118.128 51.064 58.632 114.84 26.12C137.12 14.76 161.68 8.088 189.6 5.824L204.128 4.64L223.064 23.576L241.992 42.512L211.496 72.992L181 103.48L164.992 87.496L148.984 71.512L110.248 110.248L71.504 148.992L87.488 165L103.48 181.008L72.984 211.52L42.488 242L23.632 223.12M72.496 164.992L56.512 148.984L102.752 102.744L148.992 56.504L164.992 72.488L181.008 88.472L204 65.488L227 42.504L213.56 29.064L200.104 15.608L187.464 16.8C141.432 21.136 102.68 39.24 70.464 71.456C39.216 102.704 20.824 142.28 16.776 186.984L15.592 200.0560000000001L29.032 213.528L42.48 227.008L65.48 204.008L88.488 181.008L72.496 165" />
    <glyph glyph-name="pin-2"
      unicode="&#xEA0E;"
      horiz-adv-x="256" d="M37.48 249.944C27.064 248.56 16.72 240.184 12.928 230.104C10.088 222.544 10.496 211.464 13.84 205C17.96 197.048 25.232 190.704 33.248 188.072L37 186.848V159.416L32.56 158.232C26.56 156.624 18.376 149.688 14.6 143C11.736 137.912 11.504 136.784 11.504 128C11.504 120.016 11.872 117.816 13.792 114.208C21.816 99.168 38.456 92.392 53.448 98.048C63.184 101.728 71.52 110.768 73.464 119.784L74.176 123.064L85.224 122.784L96.28 122.496L97.504 118.352C101.184 105.896 114.672 95.984 127.904 96.008C132.736 96.024 140.4 97.984 143.72 100.056C145.88 101.4 145.024 102.216 174.624 70.672L187.608 56.832L184.808 51.28C183.264 48.216 182 45.104 182 44.36C182 43.296 179.56 43 170.704 43H159.416L158.248 47.376C155.928 56.048 146.008 65.568 136.656 68.096C130.576 69.744 119.352 68.752 114.208 66.112C103.504 60.632 97.08 50.992 96.264 39.208C95.656 30.344 98.528 22.488 104.872 15.704C110.24 9.96 114.368 7.672 122.248 6.048C128.752 4.704 136.856 5.872 143 9.032C148.544 11.888 154.856 19.096 157.488 25.584L159.888 31.504L170.808 31.784L181.72 32.064L182.92 27.784C183.584 25.424 185.64 21.4 187.512 18.832C199.352 2.528 222.448 0.992 236.424 15.584C242.744 22.176 245.28 29.248 244.824 39C244.264 51.4 237.408 61.296 225.768 66.52C220.608 68.84 218.76 69.16 212.152 68.84C206.8 68.6 203.152 67.808 200.016 66.248L195.528 64.016L193.424 66.256C148.072 114.544 153.312 108.304 155.44 111.544C159.808 118.224 161.088 128.848 158.528 137.28C154.44 150.752 142.528 159.36 128 159.36C113.712 159.36 101.304 150.528 97.504 137.648L96.28 133.504L85.224 133.216L74.176 132.936L73.464 136.216C72.344 141.416 69.512 146.168 64.832 150.696C60.536 154.856 53.112 158.936 49.752 158.976C48.168 159 48 160.336 48 172.864V186.736L53.8 188.848C60.48 191.288 67.8 197.72 70.984 203.968C79.144 219.96 72.728 239.248 56.712 246.872C49.784 250.168 44.92 250.96 37.472 249.944M122.056 249.84C106.784 247.376 95.176 232.504 96.264 216.792C97.072 205.048 103.368 195.576 114.208 189.8C117.808 187.872 120.016 187.504 128 187.504S138.184 187.872 141.792 189.8C156.816 197.8 163.608 214.464 157.96 229.416C155.456 236.072 149.632 242.968 143.56 246.496C139.976 248.576 137.904 249.152 129.496 250.416C128.4 250.576 125.048 250.32 122.056 249.84M207.896 249.912C195.816 248.072 185.76 238.744 182.472 226.336C178.488 211.28 187.248 194.432 201.92 188.92C209.464 186.088 220.48 186.52 227.1840000000001 189.92C237.808 195.296 244.296 205.256 244.832 217C245.288 226.92 242.736 233.912 236.2320000000001 240.52C228.528 248.352 218.808 251.576 207.904 249.912M53.84 236.6C74.544 223.536 60.056 191.608 36.528 198.448C23.288 202.296 17.376 218.68 25.056 230.264C31.4 239.848 44.224 242.672 53.84 236.6M136.512 238.136C152.352 230.936 153.2 208.488 137.952 200.024C121.544 190.904 102.048 207.464 107.992 225.472C111.8 237.008 125.552 243.112 136.512 238.136M221.496 238.12C229.728 234.344 234.136 227.536 234.136 218.608C234.136 212.072 232.96 209.072 228.424 204.048C218.024 192.536 199.12 196.656 193.384 211.68C190.072 220.336 193.832 231.344 201.816 236.384C208.232 240.44 215.128 241.048 221.496 238.12M205.736 158.976C199.816 157.48 194.848 154.528 190.36 149.832C185.304 144.544 183.584 141.216 182.04 133.752C179.848 123.088 183.32 112.72 191.704 104.872C207.544 90.064 231.712 94.528 242.208 114.208C244.128 117.808 244.496 120.016 244.496 128C244.496 136.664 244.24 137.968 241.536 142.856A34.88 34.88 0 0 1 226.456 157.016C221.608 159.368 211.2 160.352 205.736 158.976M51.512 147.136C53.712 146.136 56.952 143.68 58.704 141.688C70.528 128.224 60.784 107.104 42.72 107.024C30.48 106.968 21.8 115.672 21.8 128C21.8 137.056 26.832 144.616 35.032 147.888C39.016 149.48 47.168 149.104 51.512 147.136M139.344 145.816C141.456 144.376 144.384 141.456 145.848 139.344C148.144 136.024 148.496 134.488 148.496 128C148.496 121.472 148.144 119.984 145.76 116.504C144.256 114.304 141.36 111.376 139.336 110C136.2 107.872 134.504 107.496 128 107.496C121.496 107.496 119.8 107.872 116.664 110C105.384 117.64 103.64 133.488 113.056 142.904C117.776 147.624 121.792 149.096 129 148.752C134.0399999999999 148.512 136.36 147.856 139.3439999999999 145.816M225.232 145.416C231.184 141.232 234.2 135.416 234.2 128.112C234.2 115.776 225.6 107 213.5039999999999 107C194.8639999999999 107 185.1519999999999 128.88 197.7999999999999 142.376C204.7279999999999 149.7600000000001 217.0879999999999 151.1280000000001 225.2319999999999 145.4160000000001M29.504 66.16C17.992 60.536 11.728 51.256 11.168 38.992C10.72 29.232 13.264 22.168 19.568 15.576C30.72 3.936 48.368 2.216 61.168 11.496C80.808 25.76 78.112 55.416 56.192 66.168C52.76 67.848 49.352 68.552 43.496 68.784C36.336 69.064 34.872 68.784 29.496 66.16M50.616 56.872C52.328 56.352 55.352 54.304 57.336 52.32A20.976 20.976 0 0 0 44.648 16.296C39.928 15.816 38.248 16.128 33.664 18.368C19.024 25.536 17.328 44.512 30.464 54.528C35.76 58.576 42.424 59.352 50.624 56.872M138.456 55.616C149.896 49.472 152.488 33.312 143.656 23.248C137.6 16.36 127.672 14.144 119.496 17.856C100.952 26.28 104.04 54.416 123.904 58.008A21.856 21.856 0 0 0 138.456 55.616M219.088 57.568C223.488 56.824 230.152 51.296 232.4480000000001 46.472C234.5120000000001 42.104 234.648 33.48 232.7120000000001 28.848C226.2720000000001 13.424 204.4400000000001 11.824 195.424 26.112C191.44 32.432 191.072 39.568 194.376 46.328C198.144 54.032 207.352 59.72 214 58.456C214.8240000000001 58.296 217.12 57.896 219.088 57.568" />
    <glyph glyph-name="pin-3"
      unicode="&#xEA0F;"
      horiz-adv-x="256" d="M113.039 254.899C100.947 253.044 84.243 246.309 73.14 238.811C48.614 222.248 34.363 197.143 32.376 167C30.322 135.835 47.621 99.668 89.533 47.5C100.168 34.262 124.492 7.05 127.168 5.396C129.199 4.141 155.742 33.435 173.475 56.5C207.785 101.129 224.013 134.812 223.996 161.36C223.991 169.5 221.499 184.521 218.87 192.265C213.612 207.751 202.228 223.775 189.172 234.067C179.525 241.672 162.133 250.308 151 253.022C141.063 255.445 122.564 256.359 113.039 254.899M142.341 238.562C163.262 234.559 184.078 220.949 195.39 203.876C207.05 186.277 210.723 162.583 204.982 142C200.299 125.212 183.949 96.754 163.616 70C153.609 56.834 129.192 28 128.049 28C126.202 28 102.307 56.19 89.48 73.5C66.089 105.068 53.038 129.688 49.323 149.253C47.502 158.843 47.96 171.197 50.5 180.999C60.756 220.579 101.818 246.315 142.341 238.562M120.734 190.97C111.404 188.627 103.095 181.89 98.812 173.193C96.946 169.404 96.5 166.862 96.5 160C96.5 149.879 98.692 144.466 105.579 137.579C116.752 126.406 133.733 124.939 146.421 134.051C167.042 148.86 163.331 179.659 139.744 189.47C134.969 191.456 125.609 192.195 120.734 190.97M134.655 174.359C144.696 169.595 146.921 157.206 139.194 149.084C135.075 144.753 130.43 143.321 124.259 144.479C119.492 145.373 113.351 151.614 112.435 156.493C109.956 169.707 122.761 180.003 134.655 174.359" />
    <glyph glyph-name="preferences-circle"
      unicode="&#xEA10;"
      horiz-adv-x="256" d="M68.792 249.856C55.192 248.016 42.2 236.616 38.936 223.664L37.76 219H5V208H21.504C35.312 208 38 207.76 38 206.536C38 202.536 42.576 193.528 47.152 188.528C61.76 172.544 85.736 171.888 100.92 187.08A36.824 36.824 0 0 1 102 238.384C93.248 247.88 82.264 251.672 68.8 249.856M82.88 238.44C97.56 234.088 105.24 216.56 98.64 202.504C94.072 192.76 87.048 187.896 76.592 187.224C70.712 186.848 68.496 187.16 64.24 188.992C45.416 197.096 42.672 223.336 59.456 234.752C67.384 240.144 73.776 241.152 82.888 238.44M133.008 213.512V208H251.112L250.808 213.248L250.504 218.504L191.76 218.76L133.008 219.016V213.512M146.896 162.696C134.872 157.648 127.296 149.368 124.072 137.752L122.752 133H4.992V123H122.736L124.048 118.248C126.48 109.384 132.208 101.832 140.496 96.56C146.872 92.496 152.136 91 160 91C173.536 91 184.936 97.56 192.184 109.504C196.928 117.328 198.432 129.296 195.816 138.384C193 148.136 184.912 157.28 175.048 161.88C167 165.632 154.728 165.984 146.888 162.696M171.704 151.736C180.944 147.248 186.176 138.696 186.176 128.056C186.176 119.68 183.584 113.664 177.672 108.32C172.272 103.44 167.6 101.68 159.992 101.632C149.536 101.56 141.248 106.712 136.104 116.488C133.144 122.096 133.144 133.912 136.104 139.512C143.2 152.952 158.424 158.168 171.704 151.728M219 128V123H251V133H219V128M65.384 78.648C58.28 76.84 52.032 72.944 46.664 66.976C42.544 62.392 38 53.208 38 49.456C38 48.24 35.312 48 21.496 48H5.008V37H37.76L38.92 32.408C43.24 15.24 62.248 3.064 80.208 5.96C106.424 10.176 120.392 39.992 106.48 62.024C97.928 75.576 80.696 82.552 65.384 78.648M85 66.92C106.576 57.16 106.104 26.168 84.256 17.992A26.384 26.384 0 0 0 49.424 50.376C53.736 65.208 71.008 73.248 85 66.92M133 42.488V36.984L191.752 37.24L250.496 37.496L250.8 42.752L251.104 48H133V42.488" />
    <glyph glyph-name="recipe"
      unicode="&#xEA11;"
      horiz-adv-x="256" d="M16 128L16 0L93.755 0L171.511 0L205.755 34.255L240 68.511L240 162.255L240 256L128 256L16 256L16 128M224 160L224 80L192 80L160 80L160 48L160 16L96 16L32 16L32 128L32 240L128 240L224 240L224 160M64 184L64 176L76 176L88 176L88 184L88 192L76 192L64 192L64 184M104 184L104 176L148 176L192 176L192 184L192 192L148 192L104 192L104 184M64 128L64 120L76 120L88 120L88 128L88 136L76 136L64 136L64 128M104 128L104 120L148 120L192 120L192 128L192 136L148 136L104 136L104 128M64 72L64 64L76 64L88 64L88 72L88 80L76 80L64 80L64 72M104 72L104 64L124 64L144 64L144 72L144 80L124 80L104 80L104 72M212 63.74C212 63.596 203.9 55.389 194 45.5L176 27.521L176 45.76L176 64L194 64C203.9 64 212 63.883 212 63.74" />
    <glyph glyph-name="responsive"
      unicode="&#xEA12;"
      horiz-adv-x="256" d="M137.18 254.318C131.387 251.464 128.605 246.695 128.162 238.86L127.774 232L63.887 232L0 232L0 144L0 56L12 56L24 56L24 50.468C24 43.291 25.89 38.948 30.566 35.382L34.344 32.5L60 32.5L85.656 32.5L89.434 35.382C94.11 38.948 96 43.291 96 50.468L96 56L176 56L256 56L256 144L256 232L244.113 232L232.226 232L231.838 238.86C231.526 244.388 230.932 246.4 228.782 249.22C223.6 256.013 223.675 256.003 179.849 255.977C145.466 255.957 140.081 255.748 137.18 254.318M216 188L216 136L180 136L144 136L144 188L144 240L180 240L216 240L216 188M128 174.468C128 128.269 127.983 128.403 134.566 123.382L138.344 120.5L180 120.5L221.656 120.5L225.434 123.382C232.017 128.403 232 128.269 232 174.468L232 216L236 216L240 216L240 144L240 72L168 72L96 72L96 101.599C96 134.649 95.808 135.757 89.187 140.806L85.656 143.5L60 143.5L34.344 143.5L30.813 140.806C24.192 135.757 24 134.649 24 101.599L24 72L20 72L16 72L16 144L16 216L72 216L128 216L128 174.468M168 152L168 144L180 144L192 144L192 152L192 160L180 160L168 160L168 152M80 88L80 48L60 48L40 48L40 88L40 128L60 128L80 128L80 88M48 64L48 56L60 56L72 56L72 64L72 72L60 72L48 72L48 64M104 32L104 24L92 24L80 24L80 16L80 8L128 8L176 8L176 16L176 24L164 24L152 24L152 32L152 40L128 40L104 40L104 32" />
    <glyph glyph-name="settings"
      unicode="&#xEA13;"
      horiz-adv-x="256" d="M181.362 254.086C164.252 249.438 150.282 238.481 143.025 224.015C138.073 214.146 136.584 207.51 136.495 194.921L136.412 183.342L126.956 174.702L117.5 166.062L78.749 204.777L39.999 243.492L22.254 225.747L4.508 208.001L42.46 170.04C63.334 149.161 80.207 131.901 79.956 131.684C67.548 120.963 6.676 64.747 4.747 62.229C-0.344 55.584 -1.375 46.627 2.076 39.021C4.542 33.584 31.613 5.81 37.318 2.862C45.955 -1.599 56.811 -0.224 64.17 6.264C66.189 8.044 93.846 38.075 125.631 73L183.422 136.5L193.034 136.141C229.037 134.795 258.02 164.134 255.662 199.54C255.15 207.234 249.789 227 248.214 227C247.834 227 240.429 219.917 231.759 211.259L215.994 195.518L205.756 205.756L195.518 215.994L211.259 231.759C219.917 240.429 227 247.839 227 248.226C227 248.613 222.613 250.323 217.25 252.027C204.295 256.143 191.613 256.871 181.362 254.086M184.494 227.994L172.519 215.987L194.253 194.253L215.987 172.519L228.106 184.509L240.225 196.5L239.562 191.127C238.198 180.08 231.406 167.524 223.738 161.871C211.728 153.018 198.104 150.052 185.095 153.458C178.985 155.058 178.611 155.051 176.97 153.317C176.024 152.318 149.499 123.15 118.027 88.5C86.555 53.85 58.632 23.363 55.977 20.75C47.982 12.885 47.228 13.178 30.26 30.75C13.525 48.08 13.373 48.484 20.75 55.967C23.362 58.618 53.625 86.322 88 117.533C122.375 148.744 151.543 175.27 152.819 176.481C155.114 178.661 155.121 178.743 153.569 184.736C148.87 202.867 156.355 222.855 171.461 232.518C177.271 236.235 187.779 239.86 192.984 239.944L196.469 240L184.494 227.994M72.993 187.507L105.474 155.015L98.987 149.078L92.5 143.141L60.017 175.556L27.533 207.97L33.485 213.985C36.759 217.293 39.679 220 39.974 220C40.27 220 55.128 205.378 72.993 187.507M181.996 113.495L176.559 107.991L202.659 81.745C226.538 57.734 228.908 55.042 230.505 50.113C234.545 37.652 229.04 24.719 217 18.382C212.166 15.838 199.859 15.83 195 18.368C193.075 19.373 180.466 31.182 166.981 44.61L142.461 69.024L136.708 63.21L130.954 57.395L156.227 32.376C183.818 5.062 186.789 2.888 199.356 0.805C232.818 -4.739 258.459 30.35 243.293 60.933C241.16 65.234 234.633 72.469 214.589 92.75C200.32 107.187 188.372 119 188.039 119C187.705 119 184.985 116.523 181.996 113.495" />
    <glyph glyph-name="spaceship"
      unicode="&#xEA14;"
      horiz-adv-x="256" d="M224.504 247.464C195.544 243.68 166.824 234.048 142.392 219.944L134.136 215.168L126.32 217.72C115.648 221.192 95.28 222.048 82.928 219.544C64.992 215.912 49.144 207.464 36.888 195.008C30.768 188.8 22.8 178.24 21.336 174.424C20.888 173.264 25.768 167.72 38.744 154.656L56.776 136.496L50.88 126C47.632 120.224 44.232 113.552 43.32 111.168L41.664 106.84L74.264 74.24L106.864 41.64L113.208 44.336C116.696 45.824 123.352 49.296 127.984 52.048L136.416 57.064L154.608 38.888C167.728 25.792 173.256 20.888 174.424 21.328C178.44 22.872 189.12 31.024 195.536 37.456C212.056 54.008 221.12 76.192 221.136 100.104C221.136 111.784 219.952 119.92 216.976 128.568L215.016 134.264L218.56 140.104C224.088 149.2 233.488 169.544 236.888 179.768C243.472 199.544 247.288 218.392 248.76 238.248L249.56 249L242.024 248.888A188.24 188.24 0 0 1 224.504 247.464M237.536 231.248C236.544 221.72 233.296 205.048 230.392 194.672C227.664 184.904 221.856 169 221.024 169C220.728 169 208.8 180.688 194.52 194.976C177.888 211.616 168.904 221.296 169.528 221.912C171.472 223.816 198.008 231.992 210.096 234.408C223.36 237.064 226.992 237.584 233.864 237.84L238.232 238L237.536 231.248M213.192 152.408C195.624 117.712 156.584 79.232 118 58.6L109.496 54.048L81.824 81.696L54.144 109.336L57.968 116.92C60.072 121.088 64.576 128.728 67.976 133.896C90.448 168.056 116.248 192.984 148.448 211.64L157.496 216.88L186.84 187.6L216.184 158.312L213.192 152.408M117.992 208.976L123.48 207.728L121.008 206.112C108.336 197.84 83.784 173.7760000000001 71.536 157.632L62.624 145.888L48.144 160.3680000000001L33.656 174.8560000000001L36.512 178.68C48.064 194.12 66.136 205.4 86 209.5680000000001C93.52 211.144 109.744 210.8480000000001 117.992 208.9760000000001M138.784 169.9040000000001C129.264 168.4320000000001 120.056 159.4 118.008 149.5200000000001C114.112 130.7840000000001 130.728 114.1040000000001 149.424 117.984C163.504 120.904 173.024 135.3200000000001 170.048 149.2000000000001C166.928 163.7600000000001 154.08 172.2720000000001 138.784 169.9040000000001M150.656 158.3600000000001C160.696 153.5920000000001 162.92 141.2080000000001 155.192 133.0800000000001C151.072 128.7600000000001 146.432 127.3200000000001 140.256 128.4800000000001C135.488 129.3760000000001 129.352 135.6160000000001 128.432 140.4960000000001C125.952 153.7040000000001 138.76 164.0000000000001 150.656 158.3600000000001M210.024 110.8160000000001C213.64 84.4160000000001 202.72 56.5440000000001 182.032 39.3760000000001C178.472 36.4160000000001 175.32 34.0000000000001 175.016 34.0000000000001C174.72 34.0000000000001 167.952 40.5440000000001 159.984 48.5440000000001C148.032 60.5520000000001 145.784 63.2640000000001 147.128 64.0320000000001C148.024 64.5440000000001 152.968 68.2160000000001 158.112 72.1920000000001C170.864 82.0480000000001 188.928 99.7920000000001 199.08 112.4320000000001C208.608 124.2800000000001 208.168 124.3520000000001 210.024 110.8160000000001M26.72 67.472C21.4 65.52 14.512 60.352 11.584 56.112C6.104 48.176 5.632 45.856 5.2 24.64L4.792 4.784L24.64 5.168C43.608 5.528 44.752 5.656 50.184 8.184C62.6 13.96 69.464 25.296 68.824 39C68.264 51.288 61.968 60.616 50.504 66.12C45.576 68.48 43.248 68.984 37.504 68.928C33.648 68.888 28.8 68.232 26.728 67.472M43.088 57.576C47.488 56.832 54.152 51.304 56.448 46.48C58.528 42.104 58.648 33.472 56.704 28.888C54.704 24.168 50.76 20.248 45.752 17.976C42.272 16.392 39.176 16.04 28.752 16.024L16 16V28.8C16 40.504 16.216 42.048 18.536 46.688C20.008 49.656 22.616 52.848 24.784 54.352C28.528 56.944 35.216 59.032 38 58.472C38.824 58.312 41.12 57.904 43.088 57.576" />
    <glyph glyph-name="stre-left"
      unicode="&#xEA15;"
      horiz-adv-x="256" d="M166.144 4.84L81.488 123.352C79.504 126.136 79.504 129.864 81.488 132.648L166.144 251.16L179.16 241.864L97.832 128L179.16 14.144L166.144 4.84z" />
    <glyph glyph-name="stre-right-2"
      unicode="&#xEA16;"
      horiz-adv-x="256" d="M87.656 244.416C85.472 242.928 84.064 241.264 84.36 240.512C84.64 239.784 101.544 214.168 121.936 183.592L159.008 128L121.936 72.4C101.544 41.824 84.632 16.208 84.352 15.472C83.872 14.24 91.552 8.152 92.384 9.104C95.752 12.968 171.024 127.552 170.808 128.48C170.432 130.096 92.704 246.9360000000001 91.984 246.976C91.696 246.992 89.752 245.84 87.664 244.4160000000001" />
    <glyph glyph-name="stre-right"
      unicode="&#xEA17;"
      horiz-adv-x="256" d="M83.209 246.417C79.402 243.589 77.277 241.36 77.712 240.653C78.102 240.019 96.346 214.413 118.253 183.75L158.084 128L118.253 72.25C96.346 41.587 78.102 15.981 77.712 15.347C77.277 14.64 79.402 12.411 83.209 9.583C89.105 5.201 89.498 5.059 91.084 6.735C94.203 10.033 177 126.896 177 128C177 129.104 94.203 245.967 91.084 249.265C89.498 250.941 89.105 250.799 83.209 246.417" />
    <glyph glyph-name="tail-left"
      unicode="&#xEA18;"
      horiz-adv-x="256" d="M45.998 169.498L4.506 127.997L46.248 86.255L87.991 44.512L93.737 50.259L99.483 56.005L67.497 88.003L35.512 120L137.756 120L240 120L240 128L240 136L137.756 136L35.512 136L67.486 167.986L99.46 199.972L94.014 205.486C91.019 208.519 88.326 211 88.03 211C87.733 211 68.819 192.324 45.998 169.498" />
    <glyph glyph-name="tail-right-2"
      unicode="&#xEA19;"
      horiz-adv-x="256" d="M161.736 206.272L157.992 202.52L192.736 167.76L227.488 133H11V123H227.488L192.72 88.224L157.96 53.448L161.752 49.744L165.544 46.04L206.52 87.016L247.496 128L206.488 169.008L165.48 210.016L161.736 206.272" />
    <glyph glyph-name="tail-right"
      unicode="&#xEA1A;"
      horiz-adv-x="256" d="M161.986 205.486L156.54 199.972L188.514 167.986L220.488 136L118.244 136L16 136L16 128L16 120L118.244 120L220.488 120L188.503 88.003L156.517 56.005L162.263 50.259L168.009 44.512L209.752 86.255L251.494 127.997L210.002 169.498C187.181 192.324 168.267 211 167.97 211C167.674 211 164.981 208.519 161.986 205.486" />
    <glyph glyph-name="triangle-left-18"
      unicode="&#xEA1B;"
      horiz-adv-x="256" d="M204.84 249.64A5.36 5.36 0 0 0 213.336 245.336V10.664A5.328 5.328 0 0 0 204.84 6.36L44.84 123.696A5.344 5.344 0 0 0 44.84 132.304L204.84 249.64z" />
    <glyph glyph-name="triangle-right-17"
      unicode="&#xEA1C;"
      horiz-adv-x="256" d="M51.16 249.64A5.328 5.328 0 1 1 42.672 245.336V10.664A5.328 5.328 0 0 1 51.152 6.36L211.152 123.696A5.344 5.344 0 0 1 211.152 132.304L51.16 249.64z" />
  </font>
</defs>
</svg>
